<?xml version="1.0" standalone="no"?><!DOCTYPE svg PUBLIC "-//W3C//DTD SVG 1.1//EN" "http://www.w3.org/Graphics/SVG/1.1/DTD/svg11.dtd"><svg t="1638091524873" class="icon" viewBox="0 0 1024 1024" version="1.1" xmlns="http://www.w3.org/2000/svg" p-id="25514" xmlns:xlink="http://www.w3.org/1999/xlink" width="200" height="200"><defs><style type="text/css"></style></defs><path d="M776.2 327.8L821 283c9.1-9.1 9.1-24 0-33.1-9.1-9.1-24-9.1-33.1 0l-44.8 44.8c-21.9-19.4-46.2-35.9-72.2-49.3-11.5-5.9-25.7-1.3-31.5 10.3s-1.3 25.7 10.3 31.5C752.2 338.8 816.8 444 816.5 558.8c0 167.9-136.6 304.5-304.5 304.5S207.5 726.7 207.5 558.8 344.1 254.3 512 254.3c12.9 0 23.4-10.5 23.4-23.4v-70.3h70.3c12.9 0 23.4-10.5 23.4-23.4 0-12.9-10.5-23.4-23.4-23.4H418.3c-12.9 0-23.4 10.5-23.4 23.4 0 12.9 10.5 23.4 23.4 23.4h70.3v48C305.8 220.8 160.7 373 160.7 558.8c0 193.7 157.6 351.3 351.3 351.3s351.3-157.6 351.3-351.3c0.1-85-30.9-167.2-87.1-231z" fill="#FF0000" p-id="25515"></path><path d="M512 394.9c-12.9 0-23.4 10.5-23.4 23.4v140.5c0 12.9 10.5 23.4 23.4 23.4s23.4-10.5 23.4-23.4V418.3c0-12.9-10.4-23.4-23.4-23.4z" fill="#FF0000" p-id="25516"></path></svg>