<?xml version="1.0" standalone="no"?><!DOCTYPE svg PUBLIC "-//W3C//DTD SVG 1.1//EN" "http://www.w3.org/Graphics/SVG/1.1/DTD/svg11.dtd"><svg t="1638091110368" class="icon" viewBox="0 0 1024 1024" version="1.1" xmlns="http://www.w3.org/2000/svg" p-id="21855" xmlns:xlink="http://www.w3.org/1999/xlink" width="200" height="200"><defs><style type="text/css"></style></defs><path d="M787.968 159.744H290.816A135.168 135.168 0 0 0 153.6 294.4v437.76a135.168 135.168 0 0 0 134.656 134.656h497.664A135.168 135.168 0 0 0 921.6 732.672V294.4a135.168 135.168 0 0 0-133.632-134.656z m-497.664 51.2h497.664A83.968 83.968 0 0 1 870.4 294.4v358.4H204.8v-358.4a83.968 83.968 0 0 1 86.016-83.456z m497.664 605.184H290.816A83.968 83.968 0 0 1 204.8 732.672v-25.6h665.6v25.6a83.968 83.968 0 0 1-82.432 83.456z" fill="#5184F0" p-id="21856"></path><path d="M534.528 568.832a220.672 220.672 0 0 0 220.16-220.16 25.6 25.6 0 0 0-51.2 0 168.96 168.96 0 1 1-338.432 0 25.6 25.6 0 0 0-51.2 0 220.672 220.672 0 0 0 220.672 220.16z" fill="#5184F0" p-id="21857"></path></svg>