<?xml version="1.0" standalone="no"?><!DOCTYPE svg PUBLIC "-//W3C//DTD SVG 1.1//EN" "http://www.w3.org/Graphics/SVG/1.1/DTD/svg11.dtd"><svg t="1638091565075" class="icon" viewBox="0 0 1094 1024" version="1.1" xmlns="http://www.w3.org/2000/svg" p-id="29168" xmlns:xlink="http://www.w3.org/1999/xlink" width="213.671875" height="200"><defs><style type="text/css"></style></defs><path d="M1079.89132 363.781049l-77.980105-53.286648a32.012732 32.012732 0 0 0-10.462343-7.14466L555.653726 5.587677a32.012732 32.012732 0 0 0-36.567271 0.305576L13.503553 364.101177a32.012732 32.012732 0 0 0 37.018359 52.166202l32.303757-22.889104v456.443359a174.382084 174.382084 0 0 0 174.178367 174.178366H836.841926a174.382084 174.382084 0 0 0 174.178366-174.178366V394.265901l32.754846 22.37981A32.012732 32.012732 0 1 0 1079.89132 363.781049zM946.994827 849.792531a110.283863 110.283863 0 0 1-110.152901 110.152902H257.004036a110.283863 110.283863 0 0 1-110.152902-110.152902V348.09481L537.915762 71.024612 946.994827 350.524868z" fill="#d81e06" p-id="29169" data-spm-anchor-id="a313x.7781069.0.i22" class=""></path><path d="M514.910248 353.333258v368.233729a32.012732 32.012732 0 0 0 64.025465 0V353.333258a32.012732 32.012732 0 0 0-64.025465 0z" fill="#e16531" p-id="29170" data-spm-anchor-id="a313x.7781069.0.i23" class="selected"></path><path d="M546.922981 829.318934m-38.924573 0a38.924572 38.924572 0 1 0 77.849145 0 38.924572 38.924572 0 1 0-77.849145 0Z" fill="#e16531" p-id="29171" data-spm-anchor-id="a313x.7781069.0.i24" class="selected"></path></svg>